# xmcd
#
# Track frame offsets:
#	150
#	14441
#	27387
#	38783
#	58376
#	74825
#	89449
#	103977
#	115067
#	123113
#	135341
#	147271
#	164286
#	177237
#	191772
#	203325
#	216272
#	231113
#
# Disc length: 3240 seconds
#
# Revision: 1
# Processed by: cddbd v1.5PL3 Copyright (c) Steve Scherf et al.
# Submitted via: CDex 1.50Beta5
#
DISCID=090ca612
DTITLE=民謡 - 全国民謡の旅路 其の参 (秋田、山形編)
DYEAR=1900
DGENRE=Folk -> General Folk
TTITLE0=秋田船方節（秋田県）
TTITLE1=本荘追分（秋田県）
TTITLE2=秋田おばこ（秋田県）
TTITLE3=秋田馬子唄（秋田県）
TTITLE4=秋田小原節（秋田県）
TTITLE5=酒屋唄（秋田県）
TTITLE6=秋田音頭（秋田県）
TTITLE7=ドンパン節（秋田県）
TTITLE8=ひでこ節（秋田県）
TTITLE9=長者の山（秋田県）
TTITLE10=生保内節（秋田県）
TTITLE11=最上川船唄（山形県）
TTITLE12=花笠音頭（山形県）
TTITLE13=真室川音頭（山形県）
TTITLE14=紅花摘み唄（山形県）
TTITLE15=庄内おばこ（山形県）
TTITLE16=新庄節（山形県）
TTITLE17=山形大黒舞（山形県）
EXTD=
EXTT0=
EXTT1=
EXTT2=
EXTT3=
EXTT4=
EXTT5=
EXTT6=
EXTT7=
EXTT8=
EXTT9=
EXTT10=
EXTT11=
EXTT12=
EXTT13=
EXTT14=
EXTT15=
EXTT16=
EXTT17=
PLAYORDER=
